solid BigHunk
facet normal 0.0 0.0 -1.0
  outer loop
    vertex 300.0 300.0 0.0
    vertex 0.0 0.0 0.0
    vertex 0.0 300.0 0.0
  endloop
endfacet
facet normal 0.0 0.0 -1.0
  outer loop
    vertex 0.0 0.0 0.0
    vertex 300.0 300.0 0.0
    vertex 300.0 0.0 0.0
  endloop
endfacet
facet normal -0.0 -0.0 1.0
  outer loop
    vertex 300.0 0.0 400.0
    vertex 0.0 300.0 400.0
    vertex 0.0 0.0 400.0
  endloop
endfacet
facet normal -0.0 -0.0 1.0
  outer loop
    vertex 0.0 300.0 400.0
    vertex 300.0 0.0 400.0
    vertex 300.0 300.0 400.0
  endloop
endfacet
facet normal -1.0 0.0 0.0
  outer loop
    vertex 0.0 300.0 400.0
    vertex 0.0 0.0 0.0
    vertex 0.0 0.0 400.0
  endloop
endfacet
facet normal -1.0 0.0 0.0
  outer loop
    vertex 0.0 0.0 0.0
    vertex 0.0 300.0 400.0
    vertex 0.0 300.0 0.0
  endloop
endfacet
facet normal -0.0 1.0 0.0
  outer loop
    vertex 0.0 300.0 400.0
    vertex 300.0 300.0 0.0
    vertex 0.0 300.0 0.0
  endloop
endfacet
facet normal -0.0 1.0 0.0
  outer loop
    vertex 300.0 300.0 0.0
    vertex 0.0 300.0 400.0
    vertex 300.0 300.0 400.0
  endloop
endfacet
facet normal 1.0 0.0 0.0
  outer loop
    vertex 300.0 300.0 0.0
    vertex 300.0 0.0 400.0
    vertex 300.0 0.0 0.0
  endloop
endfacet
facet normal 1.0 0.0 0.0
  outer loop
    vertex 300.0 0.0 400.0
    vertex 300.0 300.0 0.0
    vertex 300.0 300.0 400.0
  endloop
endfacet
facet normal -0.0 -1.0 -0.0
  outer loop
    vertex 300.0 0.0 400.0
    vertex 0.0 0.0 0.0
    vertex 300.0 0.0 0.0
  endloop
endfacet
facet normal -0.0 -1.0 -0.0
  outer loop
    vertex 0.0 0.0 0.0
    vertex 300.0 0.0 400.0
    vertex 0.0 0.0 400.0
  endloop
endfacet
endsolid BigHunk
